{
  "accessors": [
    {
      "bufferView": 2,
      "componentType": 5126,
      "count": 47857,
      "max": [
        0.09884227812290192,
        0.22213871777057648,
        1.9989469051361084
      ],
      "min": [
        -0.09578880667686462,
        -0.10196343809366226,
        1.7652024030685425
      ],
      "type": "VEC3"
    },
    {
      "bufferView": 2,
      "byteOffset": 574284,
      "componentType": 5126,
      "count": 47857,
      "max": [
        0.9999990463256836,
        0.999568521976471,
        0.9999619722366333
      ],
      "min": [
        -0.9999854564666748,
        -0.9998742341995239,
        -0.9999855756759644
      ],
      "type": "VEC3"
    },
    {
      "bufferView": 1,
      "componentType": 5126,
      "count": 47857,
      "max": [
        0.9947623610496521,
        0.9990885853767395
      ],
      "min": [
        0.0009114809217862785,
        0.0009114809217862785
      ],
      "type": "VEC2"
    },
    {
      "bufferView": 0,
      "componentType": 5125,
      "count": 271860,
      "type": "SCALAR"
    },
    {
      "bufferView": 2,
      "byteOffset": 1148568,
      "componentType": 5126,
      "count": 8194,
      "max": [
        0.032599352300167084,
        0.032596979290246964,
        0.03259170055389404
      ],
      "min": [
        -0.03259935602545738,
        -0.032596975564956665,
        -0.03259170055389404
      ],
      "type": "VEC3"
    },
    {
      "bufferView": 2,
      "byteOffset": 1246896,
      "componentType": 5126,
      "count": 8194,
      "max": [
        0.9999344944953918,
        0.9998676180839539,
        0.9996986389160156
      ],
      "min": [
        -0.9999344944953918,
        -0.9998598694801331,
        -0.9996992349624634
      ],
      "type": "VEC3"
    },
    {
      "bufferView": 1,
      "byteOffset": 382856,
      "componentType": 5126,
      "count": 8194,
      "max": [
        0.9723086357116699,
        0.9740700721740723
      ],
      "min": [
        0.021991044282913208,
        0.025683343410491943
      ],
      "type": "VEC2"
    },
    {
      "bufferView": 0,
      "byteOffset": 1087440,
      "componentType": 5125,
      "count": 48384,
      "type": "SCALAR"
    },
    {
      "bufferView": 2,
      "byteOffset": 1345224,
      "componentType": 5126,
      "count": 8194,
      "max": [
        0.03259935602545738,
        0.03259697183966637,
        0.03259170055389404
      ],
      "min": [
        -0.032599352300167084,
        -0.032596975564956665,
        -0.03259170055389404
      ],
      "type": "VEC3"
    },
    {
      "bufferView": 2,
      "byteOffset": 1443552,
      "componentType": 5126,
      "count": 8194,
      "max": [
        0.9999344348907471,
        0.9998676180839539,
        0.9996992349624634
      ],
      "min": [
        -0.9999344944953918,
        -0.9998622536659241,
        -0.9996991753578186
      ],
      "type": "VEC3"
    },
    {
      "bufferView": 1,
      "byteOffset": 448408,
      "componentType": 5126,
      "count": 8194,
      "max": [
        0.9721765518188477,
        0.975292444229126
      ],
      "min": [
        0.023543834686279297,
        0.02583444118499756
      ],
      "type": "VEC2"
    },
    {
      "bufferView": 0,
      "byteOffset": 1280976,
      "componentType": 5125,
      "count": 48384,
      "type": "SCALAR"
    },
    {
      "bufferView": 2,
      "byteOffset": 1541880,
      "componentType": 5126,
      "count": 22693,
      "max": [
        0.6970607042312622,
        0.1746833622455597,
        1.77370023727417
      ],
      "min": [
        -0.6970607042312622,
        -0.2228579819202423,
        -0.002874433994293213
      ],
      "type": "VEC3"
    },
    {
      "bufferView": 2,
      "byteOffset": 1814196,
      "componentType": 5126,
      "count": 22693,
      "max": [
        0.9999492168426514,
        0.9999933838844299,
        0.9999895095825195
      ],
      "min": [
        -0.9999473690986633,
        -0.9999991655349731,
        -0.9999904632568359
      ],
      "type": "VEC3"
    },
    {
      "bufferView": 1,
      "byteOffset": 513960,
      "componentType": 5126,
      "count": 22693,
      "max": [
        0.9844274520874023,
        0.9794944524765015
      ],
      "min": [
        0.009452158585190773,
        0.010267437435686588
      ],
      "type": "VEC2"
    },
    {
      "bufferView": 0,
      "byteOffset": 1474512,
      "componentType": 5125,
      "count": 128634,
      "type": "SCALAR"
    },
    {
      "bufferView": 2,
      "byteOffset": 2086512,
      "componentType": 5126,
      "count": 14201,
      "max": [
        0.8111178278923035,
        0.11267636716365814,
        1.9408460855484009
      ],
      "min": [
        -0.8108379244804382,
        -0.18174904584884644,
        1.0914407968521118
      ],
      "type": "VEC3"
    },
    {
      "bufferView": 2,
      "byteOffset": 2256924,
      "componentType": 5126,
      "count": 14201,
      "max": [
        0.9990151524543762,
        0.999957263469696,
        0.9999560713768005
      ],
      "min": [
        -0.9990288019180298,
        -0.9999980330467224,
        -0.9997947216033936
      ],
      "type": "VEC3"
    },
    {
      "bufferView": 1,
      "byteOffset": 695504,
      "componentType": 5126,
      "count": 14201,
      "max": [
        0.9986212253570557,
        0.9898803234100342
      ],
      "min": [
        0.006215125322341919,
        0.00366421090438962
      ],
      "type": "VEC2"
    },
    {
      "bufferView": 0,
      "byteOffset": 1989048,
      "componentType": 5125,
      "count": 81396,
      "type": "SCALAR"
    },
    {
      "bufferView": 2,
      "byteOffset": 2427336,
      "componentType": 5126,
      "count": 14201,
      "max": [
        0.809647798538208,
        0.11195038259029388,
        1.9403393268585205
      ],
      "min": [
        -0.809647798538208,
        -0.18101690709590912,
        1.0924947261810303
      ],
      "type": "VEC3"
    },
    {
      "bufferView": 2,
      "byteOffset": 2597748,
      "componentType": 5126,
      "count": 14201,
      "max": [
        0.9990763068199158,
        0.9999838471412659,
        0.9999565482139587
      ],
      "min": [
        -0.9990763068199158,
        -0.9999836087226868,
        -0.9999229311943054
      ],
      "type": "VEC3"
    },
    {
      "bufferView": 1,
      "byteOffset": 809112,
      "componentType": 5126,
      "count": 14201,
      "max": [
        0.9986212253570557,
        0.9898803234100342
      ],
      "min": [
        0.006215125322341919,
        0.00366421090438962
      ],
      "type": "VEC2"
    },
    {
      "bufferView": 0,
      "byteOffset": 2314632,
      "componentType": 5125,
      "count": 81396,
      "type": "SCALAR"
    },
    {
      "bufferView": 2,
      "byteOffset": 2768160,
      "componentType": 5126,
      "count": 47857,
      "max": [
        0.09758031368255615,
        0.22133567929267883,
        1.9985623359680176
      ],
      "min": [
        -0.09491552412509918,
        -0.10131429880857468,
        1.7662937641143799
      ],
      "type": "VEC3"
    },
    {
      "bufferView": 2,
      "byteOffset": 3342444,
      "componentType": 5126,
      "count": 47857,
      "max": [
        0.9999727606773376,
        0.999830424785614,
        0.9999961256980896
      ],
      "min": [
        -0.9999977946281433,
        -0.9999767541885376,
        -0.9999116659164429
      ],
      "type": "VEC3"
    },
    {
      "bufferView": 1,
      "byteOffset": 922720,
      "componentType": 5126,
      "count": 47857,
      "max": [
        0.9947623610496521,
        0.9990885853767395
      ],
      "min": [
        0.0009114809217862785,
        0.0009114809217862785
      ],
      "type": "VEC2"
    },
    {
      "bufferView": 0,
      "byteOffset": 2640216,
      "componentType": 5125,
      "count": 271860,
      "type": "SCALAR"
    },
    {
      "bufferView": 2,
      "byteOffset": 3916728,
      "componentType": 5126,
      "count": 22983,
      "max": [
        0.6952899694442749,
        0.17290207743644714,
        1.7719180583953857
      ],
      "min": [
        -0.6952899694442749,
        -0.22114138305187225,
        -0.0011488684685900807
      ],
      "type": "VEC3"
    },
    {
      "bufferView": 2,
      "byteOffset": 4192524,
      "componentType": 5126,
      "count": 22983,
      "max": [
        0.9999062418937683,
        0.9999986886978149,
        0.9999922513961792
      ],
      "min": [
        -0.9999868273735046,
        -0.9999961256980896,
        -0.9999794960021973
      ],
      "type": "VEC3"
    },
    {
      "bufferView": 1,
      "byteOffset": 1305576,
      "componentType": 5126,
      "count": 22983,
      "max": [
        0.9844274520874023,
        0.9794944524765015
      ],
      "min": [
        0.009452158585190773,
        0.010267437435686588
      ],
      "type": "VEC2"
    },
    {
      "bufferView": 0,
      "byteOffset": 3727656,
      "componentType": 5125,
      "count": 130158,
      "type": "SCALAR"
    }
  ],
  "asset": {
    "extras": {
      "author": "CriticalMammal (https://sketchfab.com/CriticalMammal)",
      "license": "CC-BY-4.0 (http://creativecommons.org/licenses/by/4.0/)",
      "source": "https://sketchfab.com/3d-models/hisoka-hxh-f85b3502129c41b2a0dc24b16a49a8ee",
      "title": "Hisoka HxH"
    },
    "generator": "Sketchfab-12.67.0",
    "version": "2.0"
  },
  "bufferViews": [
    {
      "buffer": 0,
      "byteLength": 4248288,
      "name": "floatBufferViews",
      "target": 34963
    },
    {
      "buffer": 0,
      "byteLength": 1489440,
      "byteOffset": 4248288,
      "byteStride": 8,
      "name": "floatBufferViews",
      "target": 34962
    },
    {
      "buffer": 0,
      "byteLength": 4468320,
      "byteOffset": 5737728,
      "byteStride": 12,
      "name": "floatBufferViews",
      "target": 34962
    }
  ],
  "buffers": [
    {
      "byteLength": 10206048,
      "uri": "scene.bin"
    }
  ],
  "extensionsRequired": [
    "KHR_materials_pbrSpecularGlossiness"
  ],
  "extensionsUsed": [
    "KHR_materials_pbrSpecularGlossiness"
  ],
  "images": [
    {
      "uri": "textures/material_diffuse.png"
    },
    {
      "uri": "textures/Skin_diffuse.png"
    },
    {
      "uri": "textures/Hair_diffuse.png"
    },
    {
      "uri": "textures/Clothing_diffuse.png"
    }
  ],
  "materials": [
    {
      "emissiveFactor": [
        0.02596931061021137,
        0.014846395788001693,
        0.03566513972798435
      ],
      "extensions": {
        "KHR_materials_pbrSpecularGlossiness": {
          "diffuseFactor": [
            0.0,
            0.0,
            0.0,
            1.0
          ],
          "glossinessFactor": 0.1959591794,
          "specularFactor": [
            0.0,
            0.0,
            0.0
          ]
        }
      },
      "name": "Outline"
    },
    {
      "doubleSided": true,
      "extensions": {
        "KHR_materials_pbrSpecularGlossiness": {
          "diffuseFactor": [
            1.0,
            1.0,
            1.0,
            1.0
          ],
          "diffuseTexture": {
            "index": 0
          },
          "glossinessFactor": 0.1959591794,
          "specularFactor": [
            0.0,
            0.0,
            0.0
          ]
        }
      },
      "name": "material"
    },
    {
      "doubleSided": true,
      "extensions": {
        "KHR_materials_pbrSpecularGlossiness": {
          "diffuseFactor": [
            1.0,
            1.0,
            1.0,
            1.0
          ],
          "diffuseTexture": {
            "index": 1
          },
          "glossinessFactor": 0.1959591794,
          "specularFactor": [
            0.0,
            0.0,
            0.0
          ]
        }
      },
      "name": "Skin"
    },
    {
      "doubleSided": true,
      "extensions": {
        "KHR_materials_pbrSpecularGlossiness": {
          "diffuseFactor": [
            1.0,
            1.0,
            1.0,
            1.0
          ],
          "diffuseTexture": {
            "index": 2
          },
          "glossinessFactor": 0.1959591794,
          "specularFactor": [
            0.0,
            0.0,
            0.0
          ]
        }
      },
      "name": "Hair"
    },
    {
      "doubleSided": true,
      "extensions": {
        "KHR_materials_pbrSpecularGlossiness": {
          "diffuseFactor": [
            1.0,
            1.0,
            1.0,
            1.0
          ],
          "diffuseTexture": {
            "index": 3
          },
          "glossinessFactor": 0.1959591794,
          "specularFactor": [
            0.0,
            0.0,
            0.0
          ]
        }
      },
      "name": "Clothing"
    }
  ],
  "meshes": [
    {
      "name": "HairOutline_Outline_0",
      "primitives": [
        {
          "attributes": {
            "NORMAL": 1,
            "POSITION": 0,
            "TEXCOORD_0": 2
          },
          "indices": 3,
          "material": 0,
          "mode": 4
        }
      ]
    },
    {
      "name": "Eye_R_Eye_0",
      "primitives": [
        {
          "attributes": {
            "NORMAL": 5,
            "POSITION": 4,
            "TEXCOORD_0": 6
          },
          "indices": 7,
          "material": 1,
          "mode": 4
        }
      ]
    },
    {
      "name": "Eye_L_Eye_0",
      "primitives": [
        {
          "attributes": {
            "NORMAL": 9,
            "POSITION": 8,
            "TEXCOORD_0": 10
          },
          "indices": 11,
          "material": 1,
          "mode": 4
        }
      ]
    },
    {
      "name": "ClothingOutline_Outline_0",
      "primitives": [
        {
          "attributes": {
            "NORMAL": 13,
            "POSITION": 12,
            "TEXCOORD_0": 14
          },
          "indices": 15,
          "material": 0,
          "mode": 4
        }
      ]
    },
    {
      "name": "CharacterOutline.001_Outline_0",
      "primitives": [
        {
          "attributes": {
            "NORMAL": 17,
            "POSITION": 16,
            "TEXCOORD_0": 18
          },
          "indices": 19,
          "material": 0,
          "mode": 4
        }
      ]
    },
    {
      "name": "Character_Skin_0",
      "primitives": [
        {
          "attributes": {
            "NORMAL": 21,
            "POSITION": 20,
            "TEXCOORD_0": 22
          },
          "indices": 23,
          "material": 2,
          "mode": 4
        }
      ]
    },
    {
      "name": "Hair_Hair_0",
      "primitives": [
        {
          "attributes": {
            "NORMAL": 25,
            "POSITION": 24,
            "TEXCOORD_0": 26
          },
          "indices": 27,
          "material": 3,
          "mode": 4
        }
      ]
    },
    {
      "name": "Clothing_Clothing_0",
      "primitives": [
        {
          "attributes": {
            "NORMAL": 29,
            "POSITION": 28,
            "TEXCOORD_0": 30
          },
          "indices": 31,
          "material": 4,
          "mode": 4
        }
      ]
    }
  ],
  "nodes": [
    {
      "children": [
        1
      ],
      "matrix": [
        1.0,
        0.0,
        0.0,
        0.0,
        0.0,
        2.220446049250313e-16,
        -1.0,
        0.0,
        0.0,
        1.0,
        2.220446049250313e-16,
        0.0,
        0.0,
        0.0,
        0.0,
        1.0
      ],
      "name": "Sketchfab_model"
    },
    {
      "children": [
        2
      ],
      "matrix": [
        1.0,
        0.0,
        0.0,
        0.0,
        0.0,
        0.0,
        1.0,
        0.0,
        0.0,
        -1.0,
        0.0,
        0.0,
        0.0,
        0.0,
        0.0,
        1.0
      ],
      "name": "84389371e30644e4ad7c867ca872a1b2.fbx"
    },
    {
      "children": [
        3,
        5,
        7,
        9,
        11,
        13,
        15,
        17
      ],
      "name": "RootNode"
    },
    {
      "children": [
        4
      ],
      "matrix": [
        100.0,
        0.0,
        0.0,
        0.0,
        0.0,
        -1.629206793918314e-05,
        -99.99999999999868,
        0.0,
        0.0,
        99.99999999999868,
        -1.629206793918314e-05,
        0.0,
        0.0,
        0.0,
        0.0,
        1.0
      ],
      "name": "HairOutline"
    },
    {
      "mesh": 0,
      "name": "HairOutline_Outline_0"
    },
    {
      "children": [
        6
      ],
      "matrix": [
        100.0,
        0.0,
        0.0,
        0.0,
        -0.0,
        -1.629206793918314e-05,
        -99.99999999999868,
        0.0,
        0.0,
        99.99999999999868,
        -1.629206793918314e-05,
        0.0,
        -2.25974440574646,
        183.31358337402344,
        4.610403060913086,
        1.0
      ],
      "name": "Eye_R"
    },
    {
      "mesh": 1,
      "name": "Eye_R_Eye_0"
    },
    {
      "children": [
        8
      ],
      "matrix": [
        100.0,
        0.0,
        0.0,
        0.0,
        0.0,
        -1.629206793918314e-05,
        -99.99999999999868,
        0.0,
        0.0,
        99.99999999999868,
        -1.629206793918314e-05,
        0.0,
        2.25974440574646,
        183.32315063476563,
        4.553110122680664,
        1.0
      ],
      "name": "Eye_L"
    },
    {
      "mesh": 2,
      "name": "Eye_L_Eye_0"
    },
    {
      "children": [
        10
      ],
      "matrix": [
        100.0,
        0.0,
        0.0,
        0.0,
        0.0,
        -1.629206793918314e-05,
        -99.99999999999868,
        0.0,
        0.0,
        99.99999999999868,
        -1.629206793918314e-05,
        0.0,
        0.0,
        0.0,
        0.0,
        1.0
      ],
      "name": "ClothingOutline"
    },
    {
      "mesh": 3,
      "name": "ClothingOutline_Outline_0"
    },
    {
      "children": [
        12
      ],
      "matrix": [
        100.0,
        0.0,
        0.0,
        0.0,
        0.0,
        -1.629206793918314e-05,
        -99.99999999999868,
        0.0,
        0.0,
        99.99999999999868,
        -1.629206793918314e-05,
        0.0,
        0.0,
        0.0,
        0.0,
        1.0
      ],
      "name": "CharacterOutline.001"
    },
    {
      "mesh": 4,
      "name": "CharacterOutline.001_Outline_0"
    },
    {
      "children": [
        14
      ],
      "matrix": [
        100.0,
        0.0,
        0.0,
        0.0,
        0.0,
        -1.629206793918314e-05,
        -99.99999999999868,
        0.0,
        0.0,
        99.99999999999868,
        -1.629206793918314e-05,
        0.0,
        0.0,
        0.0,
        0.0,
        1.0
      ],
      "name": "Character"
    },
    {
      "mesh": 5,
      "name": "Character_Skin_0"
    },
    {
      "children": [
        16
      ],
      "matrix": [
        100.0,
        0.0,
        0.0,
        0.0,
        0.0,
        -1.629206793918314e-05,
        -99.99999999999868,
        0.0,
        0.0,
        99.99999999999868,
        -1.629206793918314e-05,
        0.0,
        0.0,
        0.0,
        0.0,
        1.0
      ],
      "name": "Hair"
    },
    {
      "mesh": 6,
      "name": "Hair_Hair_0"
    },
    {
      "children": [
        18
      ],
      "matrix": [
        100.0,
        0.0,
        0.0,
        0.0,
        0.0,
        -1.629206793918314e-05,
        -99.99999999999868,
        0.0,
        0.0,
        99.99999999999868,
        -1.629206793918314e-05,
        0.0,
        0.0,
        0.0,
        0.0,
        1.0
      ],
      "name": "Clothing"
    },
    {
      "mesh": 7,
      "name": "Clothing_Clothing_0"
    }
  ],
  "samplers": [
    {
      "magFilter": 9729,
      "minFilter": 9987,
      "wrapS": 10497,
      "wrapT": 10497
    }
  ],
  "scene": 0,
  "scenes": [
    {
      "name": "Sketchfab_Scene",
      "nodes": [
        0
      ]
    }
  ],
  "textures": [
    {
      "sampler": 0,
      "source": 0
    },
    {
      "sampler": 0,
      "source": 1
    },
    {
      "sampler": 0,
      "source": 2
    },
    {
      "sampler": 0,
      "source": 3
    }
  ]
}
